<svg xmlns="http://www.w3.org/2000/svg" width="84" height="84" viewBox="0 0 84 84" fill="none">
<g clip-path="url(#clip0_199_967)">
<path d="M42 0C45.8555 0 49.5742 0.492188 53.1562 1.47656C56.7383 2.46094 60.0742 3.88281 63.1641 5.74219C66.2539 7.60156 69.084 9.78906 71.6543 12.3047C74.2246 14.8203 76.4258 17.6504 78.2578 20.7949C80.0898 23.9395 81.498 27.2891 82.4824 30.8438C83.4668 34.3984 83.9727 38.1172 84 42C84 45.8555 83.5078 49.5742 82.5234 53.1562C81.5391 56.7383 80.1172 60.0742 78.2578 63.1641C76.3984 66.2539 74.2109 69.084 71.6953 71.6543C69.1797 74.2246 66.3496 76.4258 63.2051 78.2578C60.0605 80.0898 56.7109 81.498 53.1562 82.4824C49.6016 83.4668 45.8828 83.9727 42 84C38.1445 84 34.4258 83.5078 30.8438 82.5234C27.2617 81.5391 23.9258 80.1172 20.8359 78.2578C17.7461 76.3984 14.916 74.2109 12.3457 71.6953C9.77539 69.1797 7.57422 66.3496 5.74219 63.2051C3.91016 60.0605 2.50195 56.7109 1.51758 53.1562C0.533203 49.6016 0.0273438 45.8828 0 42C0 38.1445 0.492188 34.4258 1.47656 30.8438C2.46094 27.2617 3.88281 23.9258 5.74219 20.8359C7.60156 17.7461 9.78906 14.916 12.3047 12.3457C14.8203 9.77539 17.6504 7.57422 20.7949 5.74219C23.9395 3.91016 27.2891 2.50195 30.8438 1.51758C34.3984 0.533203 38.1172 0.0273438 42 0ZM66.7324 28.0957L61.1543 22.5176L34.125 49.5469L22.8457 38.2676L17.2676 43.8457L34.125 60.7031L66.7324 28.0957Z" fill="black"/>
</g>
<defs>
<clipPath id="clip0_199_967">
<rect width="84" height="84" fill="white"/>
</clipPath>
</defs>
</svg>