<svg width="400" height="400" viewBox="0 0 400 400" fill="none" xmlns="http://www.w3.org/2000/svg">
<rect width="400" height="400" fill="black"/>
<line x1="72.0143" y1="288.388" x2="295.013" y2="289" stroke="#F1F2F3" stroke-width="10"/>
<line x1="71.0223" y1="88.0001" x2="295.022" y2="89.0001" stroke="#F1F2F3" stroke-width="10"/>
<path d="M239 106.599L258 107.05L96 271.016L80 271.016L239 106.599Z" fill="#D9D9D9"/>
<path d="M275.023 107.05L293 107.05L137 271.016L115.5 271.016L275.023 107.05Z" fill="#D9D9D9"/>
<rect x="92" y="261" width="34" height="10" fill="#D9D9D9"/>
<path d="M239.5 107H279V117H237L239.5 112V107Z" fill="#D9D9D9"/>
<path d="M57 280.957L67.7595 272L116.385 330.409L105.625 339.366L57 280.957Z" fill="black"/>
<path d="M263 71.1149L270.734 61L331.108 107.162L323.375 117.277L263 71.1149Z" fill="black"/>
<path d="M57 82.1149L64.7337 72L125.108 118.162L117.375 128.277L57 82.1149Z" fill="black"/>
<path d="M264 272.986L271.734 262.871L324.375 257.371L332.108 309.033L324.375 319.147L264 272.986Z" fill="black"/>
<path d="M49.8916 276.453L57.6253 266.338L118 312.5L110.266 322.615L49.8916 276.453Z" fill="black"/>
<path d="M46 69.0701L56.8951 60L105.52 118.409L94.625 127.479L46 69.0701Z" fill="black"/>
<path d="M265 260.957L275.76 252L324.385 310.409L313.625 319.366L265 260.957Z" fill="black"/>
</svg>
